<svg xmlns="http://www.w3.org/2000/svg" fill="white" strokeWidth="0.5" stroke="gray"  viewBox="0 0 744.09 1052.4" version="1.0"><path  d="M243.82 966.97c3.32-4.36 3.59-5.18 1.18-3.67-4.33 2.7-8.58.74-7.91-3.65.3-1.95 1.48-3.34 2.63-3.1 2.32.5 6.47-2.42 6.47-4.56 0-.76-.81-1.38-1.79-1.38-.99 0-2.64-1.16-3.69-2.59-2.26-3.09-5.51-1.56-5.51 2.6 0 1.62-1.32 3.88-2.93 5.01-2.64 1.84-3.35 2.93-3.35 5.1 0 .39-2.12-.03-4.71-.93-2.58-.91-4.27-2.34-3.75-3.19.52-.84-.54-2.58-2.36-3.86-3.33-2.33-4.66-9.98-1.74-9.98.87 0 1.57-.69 1.57-1.52 0-.84-1.06-1.12-2.35-.62-1.45.55-2.35 0-2.35-1.45 0-1.3-1.14-2.79-2.54-3.33-2.05-.79-2.16-1.41-.59-3.31 1.61-1.93 1.4-2.33-1.22-2.33-3.69 0-5.84-4.25-3.54-7.02.87-1.04 1.13-2.35.58-2.9-.54-.55.13-1.42 1.49-1.95 2-.76 1.47-1.85-2.73-5.53-5.55-4.88-8.67-5.56-13.53-2.95-2.55 1.36-3.04 1.1-3.04-1.62 0-1.78 1.06-3.65 2.36-4.15 1.29-.49 2.33-2.06 2.3-3.48-.04-1.94-.99-1.51-3.84 1.72-2.34 2.67-4.71 3.95-6.22 3.37-1.35-.52-2.45-.34-2.45.4 0 2.04-9.27 1.34-11.44-.86-1.49-1.51-1.32-2.35.78-3.91 2.38-1.75 2.41-2.24.34-4.32-2.6-2.6-1.49-7.61 1.69-7.61 3.16 0 3.59-3.08 2.12-14.91-1.56-12.58-.6-19.39 3.2-22.76 1.46-1.3 4.7-6.79 7.22-12.22 4.03-8.71 4.37-10.56 2.93-15.97-1.25-4.7-1.12-7.32.59-11.33 2.85-6.68 1.39-22.3-2.82-30.16-3.71-6.91-3.91-16.69-.48-23.33 1.78-3.43 2.02-5.14.79-5.55-.98-.32-1.78-2.62-1.78-5.09 0-2.48-.95-5.07-2.11-5.76-1.64-.97-1.86-3.72-.96-12.14.75-7.03.56-11.85-.52-13.59-2.54-4.06 2.43-17.91 8.16-22.73 6.33-5.33 12.81-17.4 13.43-24.99.76-9.47 1.46-11.37 5.47-14.85 2.79-2.42 4.2-2.77 5.79-1.45 2.56 2.12 1.1 5.06-1.95 3.9-1.21-.47-2.19-.08-2.19.85 0 1.09 1.99 1.32 5.61.64 3.5-.66 6.45-.36 7.85.8 1.83 1.53 2.23 1.12 2.23-2.26 0-2.26-.7-4.12-1.57-4.12-.86 0-1.57-1.05-1.57-2.35 0-1.31 1.4-2.35 3.14-2.35 1.84 0 3.14 1.04 3.14 2.52 0 1.57.87 2.19 2.31 1.64 3.15-1.21 4.67 1.74 2.34 4.54-2.5 3.02-.82 2.94 2.23-.11 2.14-2.14 2.07-2.94-.71-7.64-2.93-4.97-2.75-11.35.28-9.48.77.48 2.09-.94 2.93-3.15s2.24-4.02 3.1-4.02 2.65-2.1 3.98-4.66c3.12-6.04 8.03-8.8 11.11-6.24 1.75 1.45 2.78 1.43 4.61-.09 3.31-2.74 2.93-5.22-.65-4.29-2.66.7-4.71-2.18-4.82-6.77-.05-1.99 11.16-4.85 13.01-3.32 1.28 1.07 2.85.86 4.93-.66 1.67-1.22 4.32-2.22 5.88-2.22 2 0 2.84-1.19 2.84-4.04 0-3.95 3.14-8.52 5.85-8.52 1.78 0 17.11-19.24 18.32-23 .52-1.6 5.18-6.39 10.36-10.65 6.82-5.61 9.42-8.81 9.42-11.58 0-4.28 7.8-18.8 12.11-22.55 3.15-2.73 12.76-4.6 17.42-3.39 1.69.45 3.69 2.19 4.44 3.87 1.23 2.76 1.68 2.84 4.49.77 3.07-2.25 3.05-2.33-.97-3.87-4.21-1.6-6.8-5.68-5.22-8.23.52-.85 2.08-.79 3.82.14 1.62.87 3.22 1.58 3.57 1.58 1.64 0-.13-6.5-2.48-9.09-2.68-2.97-3.61-11.4-1.49-13.52.63-.64 1.27-3.4 1.4-6.15.14-2.74.71-7.48 1.28-10.52.93-4.98.36-6.24-5.72-12.77-3.71-3.98-8.52-7.78-10.68-8.43-2.15-.65-6.7-3.56-10.09-6.46-3.39-2.89-6.75-5.35-7.46-5.46-.7-.11-3.93-.73-5-.84-1.06-.11-.56-2.22-1.07-5.24-.5-3.03-1.77-7.09-2.82-9.03-1.06-1.94-7.58-16.63-6.65-18.13.53-.86-.38-29.28.41-29.39s4.66-26.64 6.23-26.64c1.34 0-.11-5.03-5.49-19.05-2.2-5.73-3.56-10.85-3.03-11.38s.1-.97-.96-.97-2.52-9.71-3.31-10.2c-1.73-1.07 3.07-7.06 5.66-7.06 2.07 0 3.95-5.56 2.41-7.12-.55-.56-1-2.54-1-4.4 0-2.82-.84-3.35-4.98-3.12-4.55.25-4.91-.07-4.23-3.81.4-2.25 1.21-4.85 1.78-5.77.57-.93 2.13-24.72 2.21-26.01.08-1.3 1.15-3.52 2.39-4.95 2.74-3.16 2.18-7.31-1.49-11.07-1.51-1.55-2.75-4.23-2.75-5.95 0-1.73-1.02-3.14-2.26-3.14s-2.62-.58-3.06-1.29c-.88-1.43-2.68-9.27-2.9-12.66-.08-1.2-1.44-2.52-3.03-2.93-1.58-.42-2.87-1.35-2.87-2.07 0-2.66-8.09-9.31-11.32-9.31-1.84 0-2.82-.51-2.19-1.14s-2.26-2.29-6.41-3.7c-5.04-1.7-7.41-3.34-7.14-4.93.55-3.12-3.67-6.52-6.67-5.36-1.72.66-2.38-.15-2.38-2.93 0-2.36-1.5-4.83-3.92-6.41-2.16-1.42-8.6-12.26-9.52-13.98-.92-1.73-3.84-4.2-6.5-5.5-4.2-2.05-4.72-2.99-4.04-7.26.72-4.51.27-5.14-5.62-7.74l-6.4-2.82 5.58-3.8 5.58-3.79 3.78 3.56c4.37 4.1 6.57 3.07 4.31-2.01-2.38-5.32.62-11.13 7.46-14.46 5.53-2.69 6.15-2.71 8.54-.32 1.42 1.41 3.18 2.2 3.92 1.74 1.71-1.06 17.2 28.73 17.22 33.11.01 1.8.51 3.76 1.11 4.36 1.17 1.17 1.83 4.02 2.45 10.56.27 2.85 1.13 3.87 2.89 3.41 1.37-.35 5.16 1.16 8.42 3.37s6.6 3.6 7.43 3.09 2.94.61 4.69 2.5l3.19 3.42 3.68-3.46c2.02-1.9 4.65-3.07 5.86-2.61 3.01 1.16 4.94-.37 7.99-6.33 2.44-4.74 7.25-7.09 7.25-3.53 0 .86 1.41 1.57 3.14 1.57 1.72 0 3.05.53 2.95 1.18-.55 3.46.76 4.77 6.39 6.46 3.42 1.02 8.39 3.69 11.05 5.93 4.66 3.93 4.95 3.97 7.92 1.29 1.69-1.54 3.08-4.01 3.08-5.49 0-9.45 8.4-18.01 15.78-16.08 2.45.64 3.2.37 2.42-.89-.62-1-.49-1.82.28-1.82 1.83 0 2.11-2.73 1.96-19.11-.06-7.49 2.32-20.53 3.72-21.06 1.38-.53 2.11-1.61 1.62-2.39-.48-.79.37-5.48 1.9-10.43 1.52-4.96 2.57-11.304 2.33-14.109-.4-4.671 1.7-6.537 5.29-4.709.77.389 4.67-5.904 9.72-15.68 3.38-6.528 6.29-7.349 15.25-4.306 7.6 2.58 10.36 2.129 10.36-1.689 0-1.244.96-2.262 2.13-2.262 2.46 0 9.56-6.225 10.87-9.526.77-1.943 1.1-1.941 2.47.019 1.25 1.797 2.37 1.902 5.43.507 3.45-1.57 3.78-1.434 3.07 1.275-.44 1.668 3.22 9.86 5.89 12.47s13.54 11.885 19.58 15.3c9.71 5.487 11.49 7.239 15.28 15.057 4.27 8.813 4.28 8.873 1.39 13.953-7.24 12.74-10.01 16.87-11.33 16.87-.77 0-1.41 3.1-1.41 6.89 0 5.01.72 7.18 2.63 7.91 2.16.83 1.26 2.41-5.04 8.8-4.22 4.29-7 7.87-6.17 7.96.84.09 3.6.02 6.15-.15 4.11-.29 4.39-.03 2.52 2.22-1.16 1.4-4.73 15.03-4.18 15.03s-1.1 4.15-3.66 9.23c-2.57 5.07-4.32 9.57-3.9 9.99.74.74 2.05 7.56 2.95 15.31.24 2.16 1.1 6.62.97 8-.25 2.67 3.11 6.16 6.47 6.72 1.13.19 3.81 1.34 5.97 2.56s4.45 2.07 5.1 1.89 4.32 1.92 4.32 2.97c0 1.06 4.59 5.47 7.83 12.18 3.88 8.02 8.14 14.11 12.46 17.8 6.51 5.57 6.56 5.7 5.62 13.9-.64 5.57-2.36 10.1-5.27 13.9-5.83 7.6-7.89 11.01-17.11 28.38-8.83 16.63-9.28 21.86-2.64 30.61 1.96 2.59 10.05 14.92 9.59 16.67-.47 1.81 6.72 15.51 6.05 15.51s-.33 1.07.76 2.39c1.77 2.13 2.94 6.59 3.46 13.21.09 1.25 1.83 3.72 3.86 5.5 2.63 2.3 4.75 7.51 7.38 18.14 4.69 18.95 6.14 29.82 3.98 29.82-.89 0-1.3-.53-.9-1.17.4-.65-.97-1.28-3.04-1.41-2.07-.12-3.42.33-2.99 1.01.42.69-.37 1.68-1.76 2.21-2.04.78-2.16 17.47-1.94 21.08.21 3.6-.46 7.39-1.49 8.43-3.09 3.09-2.21 7.26 1.65 7.81 2.58.36 3.58 1.6 3.69 4.58.08 2.25.67 4.91 1.29 5.93.73 1.17-.62 2.45-3.68 3.52-2.66.93-4.92 2.5-5.03 3.5-.84 7.4-.64 11.5.65 13.18.83 1.08.98 1.97.34 1.97-.65 0-.37.97.62 2.15.98 1.19 5.13 2.6 9.21 3.14l7.43.99-.29 7.45c-.16 4.1-.34 8.38-.39 9.51-.06 1.13-.74 1.66-1.52 1.18-.77-.48-1.09 1.42-.69 4.23.39 2.8.92 7.56 1.17 10.59.32 3.78 1.53 6.03 3.9 7.23 1.89.96 5.17 3.38 7.3 5.38 2.12 2 3.86 3.07 3.86 2.38s1.06-.38 2.34.69c1.48 1.23 2 3.32 1.4 5.69-.59 2.34-.25 3.74.89 3.74 1.01 0 1.4.71.87 1.57-.54.86-.27 1.57.58 1.57.97 0 1.06 1.72.24 4.59-.73 2.52-.92 5-.42 5.49.5.5.04.91-1.02.91s-1.53.63-1.05 1.4c.47.77-.24 1.83-1.58 2.35-1.35.51-2.01 1.64-1.47 2.51s.38 1.58-.35 1.58-1.43 1.39-1.56 3.07c-.13 1.69-2.57 5.17-5.44 7.74l-5.2 4.66 4.61 4.82c2.54 2.66 4.03 4.83 3.32 4.83s.75 1.59 3.24 3.53c8.58 6.68 9.74 7.92 9.07 9.69-.39 1.01 2.52 2.68 6.8 3.89 4.12 1.17 8.38 3.23 9.45 4.58 1.08 1.35 1.97 1.81 1.97 1.02s2.12.88 4.71 3.72 4.73 4.58 4.75 3.88c.03-.7 1.12.14 2.43 1.87 1.3 1.72 2.82 2.94 3.38 2.7s1.16.47 1.34 1.57c.87 5.35 1.66 6.8 4.28 7.88 1.57.64 2.41 1.87 1.87 2.74-.53.87.13 1.59 1.47 1.59 1.35 0 2.45.83 2.45 1.86 0 1.02 1.38 3.33 3.08 5.13 3.05 3.26 3.05 3.34-.63 13.46-2.03 5.61-3.92 12.3-4.19 14.88s-1.11 5.54-1.87 6.59c-.75 1.04-.94 2.58-.42 3.42s-.82 3.43-2.98 5.76c-2.15 2.33-3.6 4.75-3.2 5.39.73 1.18-16.47 21.25-16.47 22.14 0 .88-10.99 11.9-10.99 13.19 0 1.3-11.86 17.6-13.89 19.38s-11.23 16.17-12.78 19.71c-1.54 3.53-6.85 11.02-11.8 16.63-4.94 5.61-9.79 12.04-10.77 14.29-1.86 4.29-10.51 12.4-13.23 12.4-2.09 0-8.11 10.33-9.21 15.81-.62 3.09-1.67 4.19-3.65 3.81-3.12-.6-7.73 3.93-21.13 20.78-4.97 6.26-9.55 11.05-10.18 10.67-.63-.39-1.21.14-1.29 1.18-.27 3.56-2.13 11.24-2.92 12.02-1.34 1.35-21.71-.05-23.28-1.59-2.26-2.23-14.36-1.75-16.34.63-.96 1.15-5.64 3.03-10.4 4.17-4.87 1.17-8.65 2.95-8.65 4.08 0 3.42-6.58 4.5-8.81 1.45-1.58-2.16-2.88-2.41-6.39-1.24-2.43.81-4.42 2.48-4.42 3.7 0 3.23-2.71 4.67-5.09 2.69-1.13-.93-5.18 4.34-5.57 5.42-.55 1.49-10.59-2.78-11.23-1.45-.64 1.36-18.2-.76-22.76 3.73-2.63 2.6-5.33 3.67-8.63 3.43-8.06-.6-14.82 2.96-16.26 8.57-1.05 4.08-2.15 5.03-6.29 5.44-4.17.41-5.01-.05-5.01-2.75 0-1.78-.18-3.24-.4-3.24s-2.87.76-5.89 1.68c-11.95 3.66-30.26 7.74-34.69 7.74-2.98 0-6.01 1.43-8.32 3.92-2.64 2.85-5.26 3.93-9.53 3.93h-5.89l4.28-5.62zm-23.15-35.19c.41-1.52.18-1.74-.65-.63-.72.95-2.36 2.17-3.66 2.72-1.65.7-1.46.88.66.63 1.65-.2 3.3-1.43 3.65-2.72zm-75.17 24.85c-.73-4.04-.22-4.97 2.98-5.46 3.33-.51 3.78-.04 4.16 4.41.17 2.07-6.78 3.09-7.14 1.05zm-24.88-11.51a2.36 2.36 0 0 1 2.35-2.35c1.3 0 2.36 1.06 2.36 2.35s-1.06 2.35-2.36 2.35a2.36 2.36 0 0 1-2.35-2.35zm-11.45-4.71c-2.41-3.02-5.66-5.49-7.21-5.49-3.351 0-8.546-5.24-6.864-6.92.643-.64-.945-.94-3.529-.66-4.24.46-4.743.04-5.173-4.38-.451-4.63-.037-5.04 7.689-7.56 6.667-2.18 10.037-2.63 9.057-3.61-2.42-2.42-.54-6.7 2.95-6.7 1.56 0 4.41 1.1 6.33 2.45 1.92 1.34 5.26 1.96 7.41 4.47 2.16 2.51 3.93 5.51 3.93 6.67s4.71 3.5 4.71 5.2c0 2.1-.76 2.8-2.36 2.19-1.29-.5-2.35-1.67-2.35-2.61 0-.93-.98-.36-2.18 1.27-1.67 2.29-1.77 3.86-.45 6.76 1.38 3.03 1.22 4.13-.78 5.6-1.38 1.01-2.76 3.17-3.08 4.8-.94 4.82-3.43 4.37-8.1-1.48zm20.87 3.23c0-3.2 3.07-4.7 5.22-2.56 1.37 1.37 1.24 2.18-.53 3.3-3.31 2.09-4.69 1.87-4.69-.74zm47.91-2.38c-.51-.83-.06-2.9 1-4.6 1.54-2.47 2.55-2.76 4.99-1.45 2.38 1.27 3.38 1.06 4.49-.91 1.1-1.97 2.11-2.17 4.46-.92 2.59 1.39 2.75 2.1 1.09 4.81-1.29 2.12-3.13 2.96-5.48 2.53-1.94-.36-3.53-.05-3.53.69 0 1.85-5.87 1.72-7.02-.15zm-10.24-10.16c0-1.35 1.06-2.46 2.35-2.46 1.38 0 2.35-1.43 2.35-3.45 0-4.52 2.7-1.79 3.4 3.45.44 3.27-.19 4.01-3.79 4.42-3.08.35-4.31-.21-4.31-1.96zm28.25-4.68c0-1.37 1.12-2.49 2.48-2.49 2.78 0 2.29 3.38-.62 4.35-1.02.34-1.86-.5-1.86-1.86zm-51.19-1.14c-2.21-2.9-1.85-9.55.57-10.37 2.37-.8 2.63 2.14.32 3.57-1.13.7-1.09 1.7.14 3.18.99 1.19 1.53 2.97 1.2 3.96-.42 1.24-1.1 1.14-2.23-.34zm48.05-5.15c0-6.99 4.88-9.6 7.79-4.15 2.63 4.91 1.92 6.38-3.08 6.38-3.02 0-4.71-.8-4.71-2.23zm-19.6-2.45c-.64-1.03-.45-2.58.41-3.44 2.05-2.05 3.67.58 2.02 3.26-.97 1.56-1.55 1.61-2.43.18zm-49.46-5.65c0-1.37.84-2.21 1.86-1.87 2.91.97 3.39 4.35.62 4.35-1.37 0-2.48-1.12-2.48-2.48zm59.64-229.04c0-1.29 1.06-2.35 2.36-2.35a2.36 2.36 0 0 1 2.35 2.35c0 1.3-1.06 2.36-2.35 2.36-1.3 0-2.36-1.06-2.36-2.36zm5.09-17.52c-3.54-1.43-5.51-6.76-3.43-9.26 2.15-2.6 7.76-3.05 7.76-.63 0 1.1 1.01 1.08 3.14-.06 2.72-1.45 3.14-1.19 3.14 1.95 0 2-1.42 4.85-3.16 6.34-3.27 2.8-4.13 2.99-7.45 1.66zm4.83-14.05c-.99-2.57 2.3-5.71 4.53-4.33 2.1 1.3 1.39 4.9-1.17 5.89-1.41.54-2.81-.11-3.36-1.56zm141.64-139.08c-3.17-4.52-3.08-6.44.43-9.61 4.07-3.68 9.87-3.17 14.05 1.23l3.58 3.78-5.3 4.04c-6.5 4.96-9.58 5.1-12.76.56z"/></svg>